<mxfile host="app.diagrams.net" modified="2023-04-27T06:45:14.432Z" agent="Mozilla/5.0 (Windows NT 10.0; Win64; x64) AppleWebKit/537.36 (KHTML, like Gecko) Chrome/112.0.0.0 Safari/537.36" etag="Pyai4uxIZvkuTXTiIPtV" version="21.2.3" type="github">
  <diagram id="C5RBs43oDa-KdzZeNtuy" name="Page-1">
    <mxGraphModel dx="1084" dy="919" grid="0" gridSize="10" guides="1" tooltips="1" connect="1" arrows="1" fold="1" page="1" pageScale="1" pageWidth="827" pageHeight="1169" math="0" shadow="0">
      <root>
        <mxCell id="WIyWlLk6GJQsqaUBKTNV-0" />
        <mxCell id="WIyWlLk6GJQsqaUBKTNV-1" parent="WIyWlLk6GJQsqaUBKTNV-0" />
        <mxCell id="YxVvDUjzKu3Ku2uUFUvx-3" value="User Open Application" style="rounded=1;whiteSpace=wrap;html=1;" parent="WIyWlLk6GJQsqaUBKTNV-1" vertex="1">
          <mxGeometry x="401" y="26" width="120" height="60" as="geometry" />
        </mxCell>
        <mxCell id="YxVvDUjzKu3Ku2uUFUvx-8" value="" style="endArrow=classic;html=1;rounded=0;entryX=0.5;entryY=0;entryDx=0;entryDy=0;" parent="WIyWlLk6GJQsqaUBKTNV-1" target="30Cfn7LQoFPLXEeTxiyt-29" edge="1">
          <mxGeometry width="50" height="50" relative="1" as="geometry">
            <mxPoint x="459.94000000000005" y="87" as="sourcePoint" />
            <mxPoint x="609" y="113" as="targetPoint" />
          </mxGeometry>
        </mxCell>
        <mxCell id="YxVvDUjzKu3Ku2uUFUvx-10" value="" style="endArrow=classic;html=1;rounded=0;exitX=0.5;exitY=1;exitDx=0;exitDy=0;entryX=0.5;entryY=0;entryDx=0;entryDy=0;" parent="WIyWlLk6GJQsqaUBKTNV-1" edge="1" target="30Cfn7LQoFPLXEeTxiyt-1" source="30Cfn7LQoFPLXEeTxiyt-17">
          <mxGeometry width="50" height="50" relative="1" as="geometry">
            <mxPoint x="460.85" y="511" as="sourcePoint" />
            <mxPoint x="460.53666666666663" y="571" as="targetPoint" />
          </mxGeometry>
        </mxCell>
        <mxCell id="YxVvDUjzKu3Ku2uUFUvx-58" value="End" style="rounded=1;whiteSpace=wrap;html=1;" parent="WIyWlLk6GJQsqaUBKTNV-1" vertex="1">
          <mxGeometry x="589" y="914" width="120" height="60" as="geometry" />
        </mxCell>
        <mxCell id="YxVvDUjzKu3Ku2uUFUvx-63" value="Succeed?&lt;br&gt;(Validate Token)" style="rhombus;whiteSpace=wrap;html=1;" parent="WIyWlLk6GJQsqaUBKTNV-1" vertex="1">
          <mxGeometry x="397.5" y="678" width="125" height="80" as="geometry" />
        </mxCell>
        <mxCell id="30Cfn7LQoFPLXEeTxiyt-1" value="Send Message To FCM" style="rounded=0;whiteSpace=wrap;html=1;" vertex="1" parent="WIyWlLk6GJQsqaUBKTNV-1">
          <mxGeometry x="400" y="564" width="120" height="60" as="geometry" />
        </mxCell>
        <mxCell id="30Cfn7LQoFPLXEeTxiyt-4" value="Yes" style="rounded=0;html=1;jettySize=auto;orthogonalLoop=1;fontSize=11;endArrow=block;endFill=0;endSize=8;strokeWidth=1;shadow=0;labelBackgroundColor=none;edgeStyle=orthogonalEdgeStyle;entryX=0;entryY=0.5;entryDx=0;entryDy=0;exitX=1;exitY=0.5;exitDx=0;exitDy=0;" edge="1" parent="WIyWlLk6GJQsqaUBKTNV-1" source="YxVvDUjzKu3Ku2uUFUvx-63" target="30Cfn7LQoFPLXEeTxiyt-33">
          <mxGeometry x="-0.8626" y="26" relative="1" as="geometry">
            <mxPoint as="offset" />
            <mxPoint x="413" y="768" as="sourcePoint" />
            <mxPoint x="588.9999999999998" y="718" as="targetPoint" />
          </mxGeometry>
        </mxCell>
        <mxCell id="30Cfn7LQoFPLXEeTxiyt-5" value="" style="endArrow=classic;html=1;rounded=0;exitX=0.5;exitY=1;exitDx=0;exitDy=0;entryX=0.5;entryY=0;entryDx=0;entryDy=0;" edge="1" parent="WIyWlLk6GJQsqaUBKTNV-1" source="30Cfn7LQoFPLXEeTxiyt-1" target="YxVvDUjzKu3Ku2uUFUvx-63">
          <mxGeometry width="50" height="50" relative="1" as="geometry">
            <mxPoint x="514.79" y="641" as="sourcePoint" />
            <mxPoint x="514.3199999999999" y="691" as="targetPoint" />
          </mxGeometry>
        </mxCell>
        <mxCell id="30Cfn7LQoFPLXEeTxiyt-6" value="No" style="rounded=0;html=1;jettySize=auto;orthogonalLoop=1;fontSize=11;endArrow=block;endFill=0;endSize=8;strokeWidth=1;shadow=0;labelBackgroundColor=none;edgeStyle=orthogonalEdgeStyle;entryX=1;entryY=0.5;entryDx=0;entryDy=0;exitX=0;exitY=0.5;exitDx=0;exitDy=0;" edge="1" parent="WIyWlLk6GJQsqaUBKTNV-1" source="YxVvDUjzKu3Ku2uUFUvx-63" target="30Cfn7LQoFPLXEeTxiyt-8">
          <mxGeometry x="-0.5944" y="-25" relative="1" as="geometry">
            <mxPoint as="offset" />
            <mxPoint x="96" y="787" as="sourcePoint" />
            <mxPoint x="196" y="836" as="targetPoint" />
          </mxGeometry>
        </mxCell>
        <mxCell id="30Cfn7LQoFPLXEeTxiyt-8" value="Retry 3 times&lt;br&gt;(retry is 4 == Destroy)" style="rhombus;whiteSpace=wrap;html=1;" vertex="1" parent="WIyWlLk6GJQsqaUBKTNV-1">
          <mxGeometry x="202" y="678" width="138" height="80" as="geometry" />
        </mxCell>
        <mxCell id="30Cfn7LQoFPLXEeTxiyt-9" value="Yes" style="rounded=0;html=1;jettySize=auto;orthogonalLoop=1;fontSize=11;endArrow=block;endFill=0;endSize=8;strokeWidth=1;shadow=0;labelBackgroundColor=none;edgeStyle=orthogonalEdgeStyle;exitX=0.5;exitY=0;exitDx=0;exitDy=0;entryX=0;entryY=0.5;entryDx=0;entryDy=0;" edge="1" parent="WIyWlLk6GJQsqaUBKTNV-1" source="30Cfn7LQoFPLXEeTxiyt-8" target="30Cfn7LQoFPLXEeTxiyt-1">
          <mxGeometry x="-0.8976" y="24" relative="1" as="geometry">
            <mxPoint y="1" as="offset" />
            <mxPoint x="517" y="805" as="sourcePoint" />
            <mxPoint x="375" y="499" as="targetPoint" />
            <Array as="points">
              <mxPoint x="271" y="594" />
            </Array>
          </mxGeometry>
        </mxCell>
        <mxCell id="30Cfn7LQoFPLXEeTxiyt-10" value="No" style="rounded=0;html=1;jettySize=auto;orthogonalLoop=1;fontSize=11;endArrow=block;endFill=0;endSize=8;strokeWidth=1;shadow=0;labelBackgroundColor=none;edgeStyle=orthogonalEdgeStyle;entryX=1;entryY=0.5;entryDx=0;entryDy=0;exitX=0;exitY=0.5;exitDx=0;exitDy=0;" edge="1" parent="WIyWlLk6GJQsqaUBKTNV-1" source="30Cfn7LQoFPLXEeTxiyt-8" target="30Cfn7LQoFPLXEeTxiyt-12">
          <mxGeometry x="-0.7361" y="-24" relative="1" as="geometry">
            <mxPoint as="offset" />
            <mxPoint x="128" y="461" as="sourcePoint" />
            <mxPoint x="294" y="818" as="targetPoint" />
            <Array as="points">
              <mxPoint x="135" y="718" />
            </Array>
          </mxGeometry>
        </mxCell>
        <mxCell id="30Cfn7LQoFPLXEeTxiyt-12" value="Destroy Server Token" style="rounded=0;whiteSpace=wrap;html=1;" vertex="1" parent="WIyWlLk6GJQsqaUBKTNV-1">
          <mxGeometry x="15" y="688" width="120" height="60" as="geometry" />
        </mxCell>
        <mxCell id="30Cfn7LQoFPLXEeTxiyt-14" value="" style="endArrow=classic;html=1;rounded=0;exitX=0.5;exitY=1;exitDx=0;exitDy=0;entryX=0.5;entryY=0;entryDx=0;entryDy=0;" edge="1" parent="WIyWlLk6GJQsqaUBKTNV-1" source="30Cfn7LQoFPLXEeTxiyt-12" target="30Cfn7LQoFPLXEeTxiyt-16">
          <mxGeometry width="50" height="50" relative="1" as="geometry">
            <mxPoint x="-3.589999999999918" y="901.5" as="sourcePoint" />
            <mxPoint x="-3" y="946.5" as="targetPoint" />
          </mxGeometry>
        </mxCell>
        <mxCell id="30Cfn7LQoFPLXEeTxiyt-16" value="End" style="rounded=1;whiteSpace=wrap;html=1;" vertex="1" parent="WIyWlLk6GJQsqaUBKTNV-1">
          <mxGeometry x="15" y="801" width="120" height="60" as="geometry" />
        </mxCell>
        <mxCell id="30Cfn7LQoFPLXEeTxiyt-17" value="Send Message To Server" style="rounded=0;whiteSpace=wrap;html=1;" vertex="1" parent="WIyWlLk6GJQsqaUBKTNV-1">
          <mxGeometry x="400" y="453" width="120" height="60" as="geometry" />
        </mxCell>
        <mxCell id="30Cfn7LQoFPLXEeTxiyt-19" value="Filtering Words" style="rhombus;whiteSpace=wrap;html=1;" vertex="1" parent="WIyWlLk6GJQsqaUBKTNV-1">
          <mxGeometry x="389" y="321" width="142" height="80" as="geometry" />
        </mxCell>
        <mxCell id="30Cfn7LQoFPLXEeTxiyt-22" value="Yes" style="rounded=0;html=1;jettySize=auto;orthogonalLoop=1;fontSize=11;endArrow=block;endFill=0;endSize=8;strokeWidth=1;shadow=0;labelBackgroundColor=none;edgeStyle=orthogonalEdgeStyle;exitX=0.5;exitY=1;exitDx=0;exitDy=0;entryX=0.5;entryY=0;entryDx=0;entryDy=0;" edge="1" parent="WIyWlLk6GJQsqaUBKTNV-1" source="30Cfn7LQoFPLXEeTxiyt-19" target="30Cfn7LQoFPLXEeTxiyt-17">
          <mxGeometry x="-0.44" y="20" relative="1" as="geometry">
            <mxPoint as="offset" />
            <mxPoint x="698" y="405" as="sourcePoint" />
            <mxPoint x="560" y="498" as="targetPoint" />
          </mxGeometry>
        </mxCell>
        <mxCell id="30Cfn7LQoFPLXEeTxiyt-23" value="No" style="rounded=0;html=1;jettySize=auto;orthogonalLoop=1;fontSize=11;endArrow=block;endFill=0;endSize=8;strokeWidth=1;shadow=0;labelBackgroundColor=none;edgeStyle=orthogonalEdgeStyle;exitX=1;exitY=0.5;exitDx=0;exitDy=0;entryX=0;entryY=0.5;entryDx=0;entryDy=0;" edge="1" parent="WIyWlLk6GJQsqaUBKTNV-1" source="30Cfn7LQoFPLXEeTxiyt-19" target="30Cfn7LQoFPLXEeTxiyt-24">
          <mxGeometry x="-1" y="-18" relative="1" as="geometry">
            <mxPoint as="offset" />
            <mxPoint x="622" y="371" as="sourcePoint" />
            <mxPoint x="622" y="361" as="targetPoint" />
          </mxGeometry>
        </mxCell>
        <mxCell id="30Cfn7LQoFPLXEeTxiyt-24" value="Throw Exception" style="shape=parallelogram;perimeter=parallelogramPerimeter;whiteSpace=wrap;html=1;fixedSize=1;" vertex="1" parent="WIyWlLk6GJQsqaUBKTNV-1">
          <mxGeometry x="589" y="331" width="120" height="60" as="geometry" />
        </mxCell>
        <mxCell id="30Cfn7LQoFPLXEeTxiyt-26" value="User Send Message" style="rounded=0;whiteSpace=wrap;html=1;" vertex="1" parent="WIyWlLk6GJQsqaUBKTNV-1">
          <mxGeometry x="400" y="216" width="120" height="60" as="geometry" />
        </mxCell>
        <mxCell id="30Cfn7LQoFPLXEeTxiyt-27" value="" style="endArrow=classic;html=1;rounded=0;exitX=0.5;exitY=1;exitDx=0;exitDy=0;entryX=0.5;entryY=0;entryDx=0;entryDy=0;" edge="1" parent="WIyWlLk6GJQsqaUBKTNV-1" source="30Cfn7LQoFPLXEeTxiyt-26" target="30Cfn7LQoFPLXEeTxiyt-19">
          <mxGeometry width="50" height="50" relative="1" as="geometry">
            <mxPoint x="483.47" y="519" as="sourcePoint" />
            <mxPoint x="430" y="305" as="targetPoint" />
          </mxGeometry>
        </mxCell>
        <mxCell id="30Cfn7LQoFPLXEeTxiyt-29" value="Generate Token" style="rounded=0;whiteSpace=wrap;html=1;" vertex="1" parent="WIyWlLk6GJQsqaUBKTNV-1">
          <mxGeometry x="400" y="121" width="120" height="60" as="geometry" />
        </mxCell>
        <mxCell id="30Cfn7LQoFPLXEeTxiyt-30" value="" style="endArrow=classic;html=1;rounded=0;exitX=0.5;exitY=1;exitDx=0;exitDy=0;entryX=0.5;entryY=0;entryDx=0;entryDy=0;" edge="1" parent="WIyWlLk6GJQsqaUBKTNV-1" source="30Cfn7LQoFPLXEeTxiyt-29" target="30Cfn7LQoFPLXEeTxiyt-26">
          <mxGeometry width="50" height="50" relative="1" as="geometry">
            <mxPoint x="313.47" y="411" as="sourcePoint" />
            <mxPoint x="313" y="461" as="targetPoint" />
          </mxGeometry>
        </mxCell>
        <mxCell id="30Cfn7LQoFPLXEeTxiyt-31" value="Send Message" style="rounded=0;whiteSpace=wrap;html=1;" vertex="1" parent="WIyWlLk6GJQsqaUBKTNV-1">
          <mxGeometry x="589" y="801" width="120" height="60" as="geometry" />
        </mxCell>
        <mxCell id="30Cfn7LQoFPLXEeTxiyt-32" value="" style="endArrow=classic;html=1;rounded=0;exitX=0.5;exitY=1;exitDx=0;exitDy=0;entryX=0.5;entryY=0;entryDx=0;entryDy=0;" edge="1" parent="WIyWlLk6GJQsqaUBKTNV-1" source="30Cfn7LQoFPLXEeTxiyt-31" target="YxVvDUjzKu3Ku2uUFUvx-58">
          <mxGeometry width="50" height="50" relative="1" as="geometry">
            <mxPoint x="505.47" y="868" as="sourcePoint" />
            <mxPoint x="505" y="918" as="targetPoint" />
          </mxGeometry>
        </mxCell>
        <mxCell id="30Cfn7LQoFPLXEeTxiyt-33" value="Save Token to TokenRepository" style="rhombus;whiteSpace=wrap;html=1;" vertex="1" parent="WIyWlLk6GJQsqaUBKTNV-1">
          <mxGeometry x="592.5" y="678" width="113" height="80" as="geometry" />
        </mxCell>
        <mxCell id="30Cfn7LQoFPLXEeTxiyt-34" value="Yes" style="rounded=0;html=1;jettySize=auto;orthogonalLoop=1;fontSize=11;endArrow=block;endFill=0;endSize=8;strokeWidth=1;shadow=0;labelBackgroundColor=none;edgeStyle=orthogonalEdgeStyle;exitX=0.5;exitY=1;exitDx=0;exitDy=0;entryX=0.5;entryY=0;entryDx=0;entryDy=0;" edge="1" parent="WIyWlLk6GJQsqaUBKTNV-1" source="30Cfn7LQoFPLXEeTxiyt-33" target="30Cfn7LQoFPLXEeTxiyt-31">
          <mxGeometry y="20" relative="1" as="geometry">
            <mxPoint as="offset" />
            <mxPoint x="588.48" y="607" as="sourcePoint" />
            <mxPoint x="588.48" y="647" as="targetPoint" />
          </mxGeometry>
        </mxCell>
        <mxCell id="30Cfn7LQoFPLXEeTxiyt-35" value="No" style="rounded=0;html=1;jettySize=auto;orthogonalLoop=1;fontSize=11;endArrow=block;endFill=0;endSize=8;strokeWidth=1;shadow=0;labelBackgroundColor=none;edgeStyle=orthogonalEdgeStyle;exitX=0.5;exitY=0;exitDx=0;exitDy=0;entryX=0.5;entryY=1;entryDx=0;entryDy=0;" edge="1" parent="WIyWlLk6GJQsqaUBKTNV-1" source="30Cfn7LQoFPLXEeTxiyt-33" target="30Cfn7LQoFPLXEeTxiyt-37">
          <mxGeometry x="0.3333" y="20" relative="1" as="geometry">
            <mxPoint as="offset" />
            <mxPoint x="658" y="563" as="sourcePoint" />
            <mxPoint x="649" y="605" as="targetPoint" />
          </mxGeometry>
        </mxCell>
        <mxCell id="30Cfn7LQoFPLXEeTxiyt-37" value="Throw Exception" style="shape=parallelogram;perimeter=parallelogramPerimeter;whiteSpace=wrap;html=1;fixedSize=1;" vertex="1" parent="WIyWlLk6GJQsqaUBKTNV-1">
          <mxGeometry x="589" y="564" width="120" height="60" as="geometry" />
        </mxCell>
      </root>
    </mxGraphModel>
  </diagram>
</mxfile>
